<svg xmlns="http://www.w3.org/2000/svg" version="1.1" xmlns:xlink="http://www.w3.org/1999/xlink" xmlns:svgjs="http://svgjs.dev/svgjs" width="1500" height="553" viewBox="0 0 1500 553"><g transform="matrix(1,0,0,1,-0.9090909090909918,-0.806426719969636)"><svg viewBox="0 0 396 146" data-background-color="#eae5df" preserveAspectRatio="xMidYMid meet" height="553" width="1500" xmlns="http://www.w3.org/2000/svg" xmlns:xlink="http://www.w3.org/1999/xlink"><g id="tight-bounds" transform="matrix(1,0,0,1,0.2400000000000091,0.2129083202813149)"><svg viewBox="0 0 395.52 145.57418335943737" height="145.57418335943737" width="395.52"><g><svg viewBox="0 0 546.1100187229465 200.99999999999997" height="145.57418335943737" width="395.52"><g><rect width="8.495363931165915" height="200.99999999999997" x="210.59407947619675" y="0" fill="#ff90c2" opacity="1" stroke-width="0" stroke="transparent" fill-opacity="1" class="rect-qz-0" data-fill-palette-color="primary" rx="1%" id="qz-0" data-palette-color="#ff90c2"></rect></g><g transform="matrix(1,0,0,1,241.32861600203785,0.4999999999999858)"><svg viewBox="0 0 304.7814027209087 200" height="200" width="304.7814027209087"><g id="textblocktransform"><svg viewBox="0 0 304.7814027209087 200" height="200" width="304.7814027209087" id="textblock"><g><svg viewBox="0 0 304.7814027209087 200" height="200" width="304.7814027209087"><g transform="matrix(1,0,0,1,0,0)"><svg width="304.7814027209087" viewBox="1.8099999999999994 -26.900000000000006 157.73999999999998 89.32000000000001" height="200" data-palette-color="#ff90c2"><svg></svg><svg></svg><g class="wordmark-text-0" data-fill-palette-color="primary" id="text-0"><path d="M13.84 0.51v0c-2.44 0-4.563-0.557-6.37-1.67-1.807-1.113-3.203-2.663-4.19-4.65-0.98-1.987-1.47-4.283-1.47-6.89v0-1.07c0-2.507 0.517-4.75 1.55-6.73 1.033-1.973 2.407-3.533 4.12-4.68 1.72-1.147 3.597-1.72 5.63-1.72v0c2.373 0 4.363 0.487 5.97 1.46 1.6 0.98 2.81 2.35 3.63 4.11 0.813 1.767 1.22 3.847 1.22 6.24v0 3.01h-17.14l-0.08 0.12c0.033 1.693 0.33 3.193 0.89 4.5 0.567 1.313 1.377 2.343 2.43 3.09 1.06 0.747 2.33 1.12 3.81 1.12v0c1.627 0 3.057-0.23 4.29-0.69 1.227-0.467 2.287-1.107 3.18-1.92v0l1.88 3.13c-0.94 0.907-2.187 1.673-3.74 2.3-1.56 0.627-3.43 0.94-5.61 0.94zM6.88-15.97l0.05 0.13h12.19v-0.64c0-1.267-0.227-2.403-0.68-3.41-0.447-1-1.113-1.787-2-2.36-0.887-0.58-1.997-0.87-3.33-0.87v0c-1.073 0-2.05 0.313-2.93 0.94-0.88 0.627-1.603 1.477-2.17 2.55-0.573 1.073-0.95 2.293-1.13 3.66zM40.43 0.51v0c-2.44 0-4.563-0.557-6.37-1.67-1.807-1.113-3.203-2.663-4.19-4.65-0.987-1.987-1.48-4.283-1.48-6.89v0-1.07c0-2.507 0.517-4.75 1.55-6.73 1.033-1.973 2.41-3.533 4.13-4.68 1.72-1.147 3.597-1.72 5.63-1.72v0c2.373 0 4.363 0.487 5.97 1.46 1.6 0.98 2.807 2.35 3.62 4.11 0.813 1.767 1.22 3.847 1.22 6.24v0 3.01h-17.14l-0.07 0.12c0.033 1.693 0.33 3.193 0.89 4.5 0.56 1.313 1.37 2.343 2.43 3.09 1.06 0.747 2.33 1.12 3.81 1.12v0c1.627 0 3.053-0.23 4.28-0.69 1.233-0.467 2.297-1.107 3.19-1.92v0l1.88 3.13c-0.947 0.907-2.197 1.673-3.75 2.3-1.553 0.627-3.42 0.94-5.6 0.94zM33.47-15.97l0.05 0.13h12.18v-0.64c0-1.267-0.223-2.403-0.67-3.41-0.447-1-1.113-1.787-2-2.36-0.887-0.58-1.997-0.87-3.33-0.87v0c-1.073 0-2.05 0.313-2.93 0.94-0.88 0.627-1.607 1.477-2.18 2.55-0.567 1.073-0.94 2.293-1.12 3.66zM67.02 0h-12.77v-3.08l3.98-0.68v-18.87l-3.98-0.69v-3.1h8.3l0.32 3.45c0.847-1.253 1.937-2.223 3.27-2.91 1.333-0.68 2.88-1.02 4.64-1.02v0c1.753 0 3.263 0.407 4.53 1.22 1.26 0.813 2.207 2.033 2.84 3.66v0c0.827-1.5 1.927-2.69 3.3-3.57 1.367-0.873 2.96-1.31 4.78-1.31v0c2.7 0 4.833 0.923 6.4 2.77 1.56 1.847 2.34 4.623 2.34 8.33v0 12.04l3.98 0.68v3.08h-12.79v-3.08l3.98-0.68v-12.08c0-2.607-0.45-4.45-1.35-5.53-0.893-1.087-2.22-1.63-3.98-1.63v0c-1.673 0-3.02 0.59-4.04 1.77-1.013 1.18-1.603 2.667-1.77 4.46v0 13.01l3.98 0.68v3.08h-12.77v-3.08l3.98-0.68v-12.08c0-2.48-0.46-4.293-1.38-5.44-0.913-1.147-2.243-1.72-3.99-1.72v0c-1.46 0-2.663 0.303-3.61 0.91-0.947 0.6-1.67 1.443-2.17 2.53v0 15.8l3.98 0.68zM111.06 0.51v0c-2.753 0-4.843-0.67-6.27-2.01-1.433-1.347-2.15-3.24-2.15-5.68v0c0-1.673 0.46-3.133 1.38-4.38 0.92-1.247 2.25-2.217 3.99-2.91 1.74-0.687 3.823-1.03 6.25-1.03v0h4.71v-2.59c0-1.593-0.483-2.83-1.45-3.71-0.973-0.88-2.337-1.32-4.09-1.32v0c-1.107 0-2.067 0.133-2.88 0.4-0.813 0.273-1.553 0.643-2.22 1.11v0l-0.52 3.69h-3.71v-6.05c1.187-0.967 2.57-1.697 4.15-2.19 1.58-0.493 3.33-0.74 5.25-0.74v0c3.207 0 5.72 0.763 7.54 2.29 1.827 1.533 2.74 3.723 2.74 6.57v0 12.72c0 0.34 0.003 0.673 0.01 1 0.007 0.327 0.027 0.653 0.06 0.98v0l2.57 0.26v3.08h-6.91c-0.147-0.713-0.26-1.357-0.34-1.93-0.087-0.567-0.147-1.137-0.18-1.71v0c-0.927 1.187-2.083 2.177-3.47 2.97-1.393 0.787-2.88 1.18-4.46 1.18zM111.77-3.52v0c1.593 0 3.05-0.38 4.37-1.14 1.32-0.767 2.263-1.687 2.83-2.76v0-4.79h-4.88c-2.213 0-3.873 0.53-4.98 1.59-1.107 1.06-1.66 2.24-1.66 3.54v0c0 1.153 0.357 2.037 1.07 2.65 0.713 0.607 1.797 0.91 3.25 0.91zM142.92 0h-12.77v-3.08l3.98-0.68v-18.87l-3.98-0.69v-3.1h8.28l0.34 3.93c0.88-1.393 1.983-2.477 3.31-3.25 1.327-0.773 2.837-1.16 4.53-1.16v0c2.847 0 5.05 0.833 6.61 2.5 1.567 1.667 2.35 4.243 2.35 7.73v0 12.91l3.98 0.68v3.08h-12.77v-3.08l3.98-0.68v-12.82c0-2.327-0.46-3.977-1.38-4.95-0.92-0.98-2.323-1.47-4.21-1.47v0c-1.387 0-2.613 0.333-3.68 1-1.067 0.667-1.917 1.58-2.55 2.74v0 15.5l3.98 0.68z" fill="#ff90c2" fill-rule="nonzero" stroke="none" stroke-width="1" stroke-linecap="butt" stroke-linejoin="miter" stroke-miterlimit="10" stroke-dasharray="" stroke-dashoffset="0" font-family="none" font-weight="none" font-size="none" text-anchor="none" style="mix-blend-mode: normal" data-fill-palette-color="primary" opacity="1"></path><path transform="translate(0,51.75)" d="M12.18 0.51v0c-2.147 0-3.99-0.533-5.53-1.6-1.533-1.067-2.707-2.55-3.52-4.45-0.82-1.907-1.23-4.13-1.23-6.67v0-0.51c0-2.833 0.41-5.317 1.23-7.45 0.813-2.127 1.993-3.78 3.54-4.96 1.54-1.18 3.393-1.77 5.56-1.77v0c1.567 0 2.947 0.287 4.14 0.86 1.193 0.58 2.213 1.413 3.06 2.5v0-10.76l-3.98-0.69v-3.1h3.98 4.81v34.33l3.98 0.68v3.08h-8.15l-0.39-3.15c-0.867 1.207-1.92 2.117-3.16 2.73-1.247 0.62-2.693 0.93-4.34 0.93zM13.4-3.39v0c1.433 0 2.64-0.327 3.62-0.98 0.973-0.653 1.777-1.573 2.41-2.76v0-12.25c-0.613-1.107-1.417-1.987-2.41-2.64-0.993-0.653-2.183-0.98-3.57-0.98v0c-1.527 0-2.787 0.437-3.78 1.31-0.993 0.867-1.733 2.07-2.22 3.61-0.493 1.54-0.74 3.327-0.74 5.36v0 0.51c0 2.653 0.547 4.787 1.64 6.4 1.093 1.613 2.777 2.42 5.05 2.42zM44.14 0h-12.77v-3.08l3.98-0.68v-18.87l-3.98-0.69v-3.1h8.79v22.66l3.98 0.68zM40.16-32.93h-5.05v-5.16h5.05zM59.06 10.67v0c-1.273 0-2.65-0.177-4.13-0.53-1.48-0.347-2.78-0.82-3.9-1.42v0l1.24-3.74c0.893 0.473 1.95 0.863 3.17 1.17 1.227 0.313 2.417 0.47 3.57 0.47v0c2.147 0 3.72-0.603 4.72-1.81 1-1.207 1.5-2.923 1.5-5.15v0-2.52c-0.86 1.107-1.893 1.947-3.1 2.52-1.2 0.567-2.583 0.85-4.15 0.85v0c-2.147 0-4-0.533-5.56-1.6-1.567-1.067-2.767-2.553-3.6-4.46-0.84-1.913-1.26-4.133-1.26-6.66v0-0.51c0-2.833 0.42-5.317 1.26-7.45 0.833-2.127 2.033-3.78 3.6-4.96 1.56-1.18 3.43-1.77 5.61-1.77v0c1.66 0 3.117 0.323 4.37 0.97 1.253 0.653 2.303 1.597 3.15 2.83v0l0.44-3.32h4.05v26.08c0 2.28-0.427 4.24-1.28 5.88-0.853 1.647-2.097 2.913-3.73 3.8-1.64 0.887-3.63 1.33-5.97 1.33zM59.18-3.39v0c1.447 0 2.66-0.33 3.64-0.99 0.973-0.66 1.777-1.593 2.41-2.8v0-12.16c-0.613-1.12-1.417-2.01-2.41-2.67-0.993-0.66-2.19-0.99-3.59-0.99v0c-1.533 0-2.807 0.44-3.82 1.32-1.02 0.88-1.78 2.09-2.28 3.63-0.507 1.533-0.76 3.31-0.76 5.33v0 0.51c0 2.653 0.56 4.787 1.68 6.4 1.127 1.613 2.837 2.42 5.13 2.42zM73.32-23.34l-4.01 0.85-1.88-3.93h5.89zM88.31 0h-12.77v-3.08l3.98-0.68v-18.87l-3.98-0.69v-3.1h8.79v22.66l3.98 0.68zM84.33-32.93h-5.06v-5.16h5.06zM100.95 0.42v0c-1.953 0-3.503-0.577-4.65-1.73-1.147-1.147-1.72-2.98-1.72-5.5v0-16.04h-4.17v-3.57h4.17v-6.37h4.81v6.37h5.74v3.57h-5.74v16.04c0 1.267 0.253 2.203 0.76 2.81 0.5 0.6 1.173 0.9 2.02 0.9v0c0.573 0 1.21-0.053 1.91-0.16 0.7-0.107 1.243-0.2 1.63-0.28v0l0.66 3.15c-0.7 0.213-1.557 0.4-2.57 0.56-1.02 0.167-1.97 0.25-2.85 0.25zM117.99 0.51v0c-2.747 0-4.837-0.67-6.27-2.01-1.433-1.347-2.15-3.24-2.15-5.68v0c0-1.673 0.46-3.133 1.38-4.38 0.92-1.247 2.25-2.217 3.99-2.91 1.74-0.687 3.823-1.03 6.25-1.03v0h4.71v-2.59c0-1.593-0.483-2.83-1.45-3.71-0.967-0.88-2.33-1.32-4.09-1.32v0c-1.107 0-2.067 0.133-2.88 0.4-0.813 0.273-1.553 0.643-2.22 1.11v0l-0.51 3.69h-3.71v-6.05c1.187-0.967 2.57-1.697 4.15-2.19 1.573-0.493 3.32-0.74 5.24-0.74v0c3.207 0 5.723 0.763 7.55 2.29 1.82 1.533 2.73 3.723 2.73 6.57v0 12.72c0 0.34 0.007 0.673 0.02 1 0.007 0.327 0.027 0.653 0.06 0.98v0l2.56 0.26v3.08h-6.91c-0.147-0.713-0.26-1.357-0.34-1.93-0.08-0.567-0.137-1.137-0.17-1.71v0c-0.927 1.187-2.087 2.177-3.48 2.97-1.393 0.787-2.88 1.18-4.46 1.18zM118.7-3.52v0c1.593 0 3.05-0.38 4.37-1.14 1.32-0.767 2.263-1.687 2.83-2.76v0-4.79h-4.88c-2.213 0-3.873 0.53-4.98 1.59-1.107 1.06-1.66 2.24-1.66 3.54v0c0 1.153 0.357 2.037 1.07 2.65 0.72 0.607 1.803 0.91 3.25 0.91zM149.61 0h-12.77v-3.08l3.98-0.68v-30.54l-3.98-0.69v-3.1h8.79v34.33l3.98 0.68z" fill="#ff90c2" fill-rule="nonzero" stroke="none" stroke-width="1" stroke-linecap="butt" stroke-linejoin="miter" stroke-miterlimit="10" stroke-dasharray="" stroke-dashoffset="0" font-family="none" font-weight="none" font-size="none" text-anchor="none" style="mix-blend-mode: normal" data-fill-palette-color="primary" opacity="1"></path></g></svg></g></svg></g></svg></g></svg></g><g transform="matrix(1,0,0,1,0,2.5282457707145056)"><svg viewBox="0 0 188.35490688152157 195.94350845857096" height="195.94350845857096" width="188.35490688152157"><g><svg xmlns="http://www.w3.org/2000/svg" xmlns:xlink="http://www.w3.org/1999/xlink" version="1.1" x="0" y="0" viewBox="9.84 8.221999999999998 80.32 83.55600000000001" enable-background="new 0 0 100 100" xml:space="preserve" height="195.94350845857096" width="188.35490688152157" class="icon-icon-0" data-fill-palette-color="accent" id="icon-0"><g fill="#ff90c2" data-fill-palette-color="accent"><path fill="none" d="M23.352 59.069c-1.719 0-3.117 1.399-3.117 3.119 0 1.719 1.398 3.118 3.117 3.118 1.721 0 3.119-1.399 3.119-3.118C26.471 60.469 25.072 59.069 23.352 59.069z"></path><path fill="none" d="M10.844 63.986c0 1.719 1.4 3.118 3.119 3.118s3.119-1.399 3.119-3.118c0-1.72-1.4-3.118-3.119-3.118S10.844 62.267 10.844 63.986z"></path><path fill="none" d="M23.418 27.693c0-1.719-1.4-3.118-3.119-3.118s-3.119 1.399-3.119 3.118c0 1.72 1.4 3.118 3.119 3.118S23.418 29.413 23.418 27.693z"></path><path fill="none" d="M20.336 42.986c-1.719 0-3.117 1.398-3.117 3.118 0 1.719 1.398 3.118 3.117 3.118 1.721 0 3.119-1.399 3.119-3.118C23.455 44.385 22.057 42.986 20.336 42.986z"></path><path fill="none" d="M54.449 15.463c1.721 0 3.119-1.398 3.119-3.118 0-1.719-1.398-3.118-3.119-3.118-1.719 0-3.117 1.399-3.117 3.118C51.332 14.064 52.73 15.463 54.449 15.463z"></path><path fill="none" d="M82.82 27.693c0-1.719-1.398-3.118-3.119-3.118-1.719 0-3.117 1.399-3.117 3.118 0 1.72 1.398 3.118 3.117 3.118C81.422 30.812 82.82 29.413 82.82 27.693z"></path><path fill="none" d="M32.938 15.695c-1.719 0-3.117 1.399-3.117 3.118 0 1.72 1.398 3.118 3.117 3.118 1.721 0 3.119-1.398 3.119-3.118C36.057 17.095 34.658 15.695 32.938 15.695z"></path><path fill="none" d="M79.664 49.223c1.719 0 3.117-1.399 3.117-3.118 0-1.72-1.398-3.118-3.117-3.118-1.721 0-3.117 1.398-3.117 3.118C76.547 47.823 77.943 49.223 79.664 49.223z"></path><path fill="none" d="M76.648 59.069c-1.721 0-3.119 1.399-3.119 3.119 0 1.719 1.398 3.118 3.119 3.118 1.719 0 3.117-1.399 3.117-3.118C79.766 60.469 78.367 59.069 76.648 59.069z"></path><path fill="none" d="M45.104 84.537c-1.719 0-3.117 1.398-3.117 3.118 0 1.719 1.398 3.118 3.117 3.118 1.721 0 3.119-1.399 3.119-3.118C48.223 85.936 46.824 84.537 45.104 84.537z"></path><path fill="none" d="M86.037 60.868c-1.719 0-3.117 1.398-3.117 3.118 0 1.719 1.398 3.118 3.117 3.118s3.119-1.399 3.119-3.118C89.156 62.267 87.756 60.868 86.037 60.868z"></path><path fill="none" d="M66.615 78.067c-1.719 0-3.117 1.399-3.117 3.119 0 1.719 1.398 3.118 3.117 3.118 1.721 0 3.119-1.399 3.119-3.118C69.734 79.467 68.336 78.067 66.615 78.067z"></path><path d="M63.457 67.553V32.697c0-0.903-0.516-1.636-1.154-1.636h-24.59c-0.637 0-1.154 0.732-1.154 1.636v34.855c0 0.903 0.518 1.636 1.154 1.636h24.59C62.941 69.188 63.457 68.456 63.457 67.553z" fill="#ff90c2" data-fill-palette-color="accent"></path><path d="M45.904 19.316v4.305c-1.332 0.237-2.346 1.396-2.346 2.797 0 1.573 1.275 2.849 2.848 2.849 1.574 0 2.85-1.275 2.85-2.849 0-1.4-1.014-2.559-2.346-2.797v-4.808c0-0.277-0.225-0.502-0.504-0.502H37.01c-0.25-2.035-1.969-3.621-4.072-3.621-2.273 0-4.123 1.85-4.123 4.123s1.85 4.124 4.123 4.124c2.104 0 3.822-1.587 4.072-3.621H45.904zM32.938 21.932c-1.719 0-3.117-1.398-3.117-3.118 0-1.719 1.398-3.118 3.117-3.118 1.721 0 3.119 1.399 3.119 3.118C36.057 20.533 34.658 21.932 32.938 21.932z" fill="#ff90c2" data-fill-palette-color="accent"></path><path d="M53.947 16.418v7.203c-1.332 0.238-2.346 1.396-2.346 2.797 0 1.573 1.275 2.849 2.848 2.849 1.574 0 2.85-1.275 2.85-2.849 0-1.401-1.016-2.56-2.348-2.797v-7.203c2.035-0.251 3.621-1.971 3.621-4.073 0-2.273-1.848-4.123-4.123-4.123-2.273 0-4.123 1.85-4.123 4.123C50.326 14.446 51.912 16.166 53.947 16.418zM54.449 9.227c1.721 0 3.119 1.399 3.119 3.118 0 1.72-1.398 3.118-3.119 3.118-1.719 0-3.117-1.398-3.117-3.118C51.332 10.626 52.73 9.227 54.449 9.227z" fill="#ff90c2" data-fill-palette-color="accent"></path><path d="M66.615 77.063c-2.102 0-3.82 1.587-4.072 3.621h-8.895v-4.305c1.334-0.237 2.348-1.396 2.348-2.798 0-1.572-1.275-2.848-2.85-2.848-1.572 0-2.848 1.275-2.848 2.848 0 1.401 1.014 2.56 2.346 2.798v4.808c0 0.277 0.225 0.502 0.502 0.502h9.396c0.252 2.035 1.971 3.621 4.072 3.621 2.273 0 4.123-1.85 4.123-4.123C70.738 78.912 68.889 77.063 66.615 77.063zM66.615 84.305c-1.719 0-3.117-1.399-3.117-3.118 0-1.72 1.398-3.119 3.117-3.119 1.721 0 3.119 1.399 3.119 3.119C69.734 82.905 68.336 84.305 66.615 84.305z" fill="#ff90c2" data-fill-palette-color="accent"></path><path d="M45.607 83.582v-7.203c1.332-0.238 2.346-1.396 2.346-2.798 0-1.572-1.275-2.848-2.85-2.848-1.572 0-2.848 1.275-2.848 2.848 0 1.401 1.014 2.561 2.346 2.798v7.203c-2.035 0.251-3.621 1.971-3.621 4.073 0 2.273 1.85 4.123 4.123 4.123s4.125-1.85 4.125-4.123C49.229 85.554 47.641 83.834 45.607 83.582zM45.104 90.773c-1.719 0-3.117-1.399-3.117-3.118 0-1.72 1.398-3.118 3.117-3.118 1.721 0 3.119 1.398 3.119 3.118C48.223 89.374 46.824 90.773 45.104 90.773z" fill="#ff90c2" data-fill-palette-color="accent"></path><path d="M68.605 40.91c1.402 0 2.561-1.013 2.797-2.346h8.01c0.277 0 0.502-0.225 0.502-0.502v-6.26h-0.066c2.205-0.079 3.977-1.886 3.977-4.109 0-2.273-1.848-4.123-4.123-4.123-2.273 0-4.123 1.85-4.123 4.123 0 2.224 1.773 4.03 3.979 4.109h-0.648v5.757h-7.506c-0.236-1.333-1.395-2.346-2.797-2.346-1.572 0-2.848 1.275-2.848 2.849S67.033 40.91 68.605 40.91zM76.584 27.693c0-1.719 1.398-3.118 3.117-3.118 1.721 0 3.119 1.399 3.119 3.118 0 1.72-1.398 3.118-3.119 3.118C77.982 30.812 76.584 29.413 76.584 27.693z" fill="#ff90c2" data-fill-palette-color="accent"></path><path d="M86.541 59.913v-5.995c0-0.277-0.225-0.502-0.504-0.502H71.348c-0.324-1.217-1.424-2.118-2.742-2.118-1.572 0-2.848 1.275-2.848 2.849s1.275 2.848 2.848 2.848c1.479 0 2.68-1.131 2.82-2.573h14.109v5.492c-2.035 0.252-3.621 1.972-3.621 4.073 0 2.273 1.85 4.123 4.123 4.123s4.123-1.85 4.123-4.123C90.16 61.885 88.574 60.165 86.541 59.913zM86.037 67.104c-1.719 0-3.117-1.399-3.117-3.118 0-1.72 1.398-3.118 3.117-3.118s3.119 1.398 3.119 3.118C89.156 65.705 87.756 67.104 86.037 67.104z" fill="#ff90c2" data-fill-palette-color="accent"></path><path d="M68.605 48.952c1.402 0 2.561-1.014 2.799-2.346h4.188c0.25 2.035 1.971 3.621 4.072 3.621 2.273 0 4.123-1.85 4.123-4.123s-1.85-4.124-4.123-4.124c-2.102 0-3.82 1.587-4.072 3.62h-4.188c-0.238-1.332-1.398-2.345-2.799-2.345-1.572 0-2.848 1.275-2.848 2.849S67.033 48.952 68.605 48.952zM79.664 42.986c1.719 0 3.117 1.398 3.117 3.118 0 1.719-1.398 3.118-3.117 3.118-1.721 0-3.117-1.399-3.117-3.118C76.547 44.385 77.943 42.986 79.664 42.986z" fill="#ff90c2" data-fill-palette-color="accent"></path><path d="M76.648 58.064c-2.102 0-3.82 1.587-4.072 3.62h-1.172c-0.238-1.332-1.398-2.345-2.799-2.345-1.572 0-2.848 1.275-2.848 2.849s1.275 2.848 2.848 2.848c1.402 0 2.561-1.014 2.799-2.346h1.172c0.25 2.035 1.971 3.621 4.072 3.621 2.273 0 4.123-1.85 4.123-4.123S78.922 58.064 76.648 58.064zM76.648 65.307c-1.721 0-3.119-1.399-3.119-3.118 0-1.72 1.398-3.119 3.119-3.119 1.719 0 3.117 1.399 3.117 3.119C79.766 63.907 78.367 65.307 76.648 65.307z" fill="#ff90c2" data-fill-palette-color="accent"></path><path d="M31.395 35.214c-1.4 0-2.559 1.013-2.797 2.346h-7.506v-5.757h-0.648c2.205-0.079 3.979-1.886 3.979-4.109 0-2.273-1.85-4.123-4.123-4.123s-4.123 1.85-4.123 4.123c0 2.224 1.771 4.03 3.977 4.109h-0.066v6.26c0 0.277 0.225 0.502 0.502 0.502h8.01c0.238 1.333 1.396 2.346 2.797 2.346 1.574 0 2.848-1.274 2.848-2.848S32.969 35.214 31.395 35.214zM17.18 27.693c0-1.719 1.4-3.118 3.119-3.118s3.119 1.399 3.119 3.118c0 1.72-1.4 3.118-3.119 3.118S17.18 29.413 17.18 27.693z" fill="#ff90c2" data-fill-palette-color="accent"></path><path d="M31.395 51.298c-1.318 0-2.418 0.901-2.742 2.118H13.963c-0.277 0-0.504 0.225-0.504 0.502v5.995c-2.033 0.252-3.619 1.972-3.619 4.073 0 2.273 1.85 4.123 4.123 4.123s4.123-1.85 4.123-4.123c0-2.102-1.586-3.821-3.621-4.073v-5.492h14.109c0.141 1.442 1.342 2.573 2.82 2.573 1.574 0 2.848-1.274 2.848-2.848S32.969 51.298 31.395 51.298zM17.082 63.986c0 1.719-1.4 3.118-3.119 3.118s-3.119-1.399-3.119-3.118c0-1.72 1.4-3.118 3.119-3.118S17.082 62.267 17.082 63.986z" fill="#ff90c2" data-fill-palette-color="accent"></path><path d="M31.395 43.256c-1.4 0-2.559 1.013-2.799 2.345h-4.188c-0.25-2.033-1.971-3.62-4.072-3.62-2.273 0-4.123 1.851-4.123 4.124s1.85 4.123 4.123 4.123c2.102 0 3.822-1.586 4.072-3.621h4.188c0.238 1.332 1.398 2.346 2.799 2.346 1.572 0 2.848-1.274 2.848-2.848S32.967 43.256 31.395 43.256zM20.336 49.223c-1.719 0-3.117-1.399-3.117-3.118 0-1.72 1.398-3.118 3.117-3.118 1.721 0 3.119 1.398 3.119 3.118C23.455 47.823 22.057 49.223 20.336 49.223z" fill="#ff90c2" data-fill-palette-color="accent"></path><path d="M31.395 59.34c-1.4 0-2.559 1.013-2.799 2.345h-1.172c-0.25-2.033-1.971-3.62-4.072-3.62-2.273 0-4.123 1.851-4.123 4.124s1.85 4.123 4.123 4.123c2.102 0 3.822-1.586 4.072-3.621h1.172c0.238 1.332 1.398 2.346 2.799 2.346 1.572 0 2.848-1.274 2.848-2.848S32.967 59.34 31.395 59.34zM23.352 65.307c-1.719 0-3.117-1.399-3.117-3.118 0-1.72 1.398-3.119 3.117-3.119 1.721 0 3.119 1.399 3.119 3.119C26.471 63.907 25.072 65.307 23.352 65.307z" fill="#ff90c2" data-fill-palette-color="accent"></path></g></svg></g></svg></g></svg></g><defs></defs></svg><rect width="395.52" height="145.57418335943737" fill="none" stroke="none" visibility="hidden"></rect></g></svg></g></svg>